# xmcd
#
# Track frame offsets:
# 150
# 9742
# 28067
# 49560
# 65245
# 79007
# 99625
# 119832
# 133925
# 155642
#
# Disc length: 2348 seconds
#
# Revision: 0
# Processed by: cddbd v1.4b42PL0 Copyright (c) Steve Scherf et al.
# Submitted via: Audion 2.5.0 (http://www.panic.com/audion/)
#
DISCID=8f092a0a
DTITLE=Greg Mack - What Does It All Mean? - Greg Mack Compilation
DYEAR=1900
DGENRE=
TTITLE0=What Does It All Mean?
TTITLE1=Together We Chill
TTITLE2=I'm the Master
TTITLE3=Can't Get Enough
TTITLE4=Highroller's Girl
TTITLE5=You'll Be On It
TTITLE6=To The Ceilin'
TTITLE7=Brand New Star
TTITLE8=Live In Action
TTITLE9=Peace
EXTD=
EXTT0=
EXTT1=
EXTT2=
EXTT3=
EXTT4=
EXTT5=
EXTT6=
EXTT7=
EXTT8=
EXTT9=
PLAYORDER=
